<svg xmlns="http://www.w3.org/2000/svg" viewBox="0 0 640 486" width="640" height="486" role="img"><defs><pattern id="h-dark" width="5" height="5" patternUnits="userSpaceOnUse" patternTransform="rotate(45)"><rect width="5" height="5" fill="#ffffff"></rect><line x1="0" y1="0" x2="0" y2="5" stroke="#404040" stroke-width="2.4"></line></pattern><pattern id="h-pos" width="5" height="5" patternUnits="userSpaceOnUse" patternTransform="rotate(45)"><rect width="5" height="5" fill="#ffffff"></rect><line x1="0" y1="0" x2="0" y2="5" stroke="#469b3c" stroke-width="2.4"></line></pattern><pattern id="h-neg" width="5" height="5" patternUnits="userSpaceOnUse" patternTransform="rotate(45)"><rect width="5" height="5" fill="#ffffff"></rect><line x1="0" y1="0" x2="0" y2="5" stroke="#c0392b" stroke-width="2.4"></line></pattern></defs><g transform="translate(0,0)"><text x="12" y="10" font-family="Arial, Helvetica, sans-serif" font-size="10.5" fill="#8a8a8a">ΔPL%</text><line data-i="0" x1="87.5" y1="61.281764523143835" x2="87.5" y2="35.62162162162162" stroke="#469b3c" stroke-width="2"></line><circle data-i="0" cx="87.5" cy="35.62162162162162" r="4.2" fill="#469b3c"></circle><text x="87.5" y="26.62162162162162" font-family="Arial, Helvetica, sans-serif" font-size="11" text-anchor="middle" fill="#404040">+9,2%</text><line data-i="1" x1="242.5" y1="61.281764523143835" x2="242.5" y2="50.73751039981718" stroke="#469b3c" stroke-width="2"></line><circle data-i="1" cx="242.5" cy="50.73751039981718" r="4.2" fill="#469b3c"></circle><text x="242.5" y="41.73751039981718" font-family="Arial, Helvetica, sans-serif" font-size="11" text-anchor="middle" fill="#404040">+3,8%</text><line data-i="2" x1="397.5" y1="61.281764523143835" x2="397.5" y2="92.37837837837839" stroke="#c0392b" stroke-width="2"></line><circle data-i="2" cx="397.5" cy="92.37837837837839" r="4.2" fill="#c0392b"></circle><text x="397.5" y="108.37837837837839" font-family="Arial, Helvetica, sans-serif" font-size="11" text-anchor="middle" fill="#404040">-11,2%</text><line data-i="3" x1="552.5" y1="61.281764523143835" x2="552.5" y2="44.602671637154394" stroke="#469b3c" stroke-width="2"></line><circle data-i="3" cx="552.5" cy="44.602671637154394" r="4.2" fill="#469b3c"></circle><text x="552.5" y="35.602671637154394" font-family="Arial, Helvetica, sans-serif" font-size="11" text-anchor="middle" fill="#404040">+6%</text><line x1="10" y1="59.68176452314383" x2="630" y2="59.68176452314383" stroke="#404040" stroke-width="1"></line><line x1="10" y1="62.881764523143836" x2="630" y2="62.881764523143836" stroke="#404040" stroke-width="1"></line></g><g transform="translate(0,130)"><text x="12" y="10" font-family="Arial, Helvetica, sans-serif" font-size="10.5" fill="#8a8a8a">ΔPL</text><rect data-i="0" x="52.625" y="36.285714285714285" width="69.75" height="30.07518796992482" fill="#469b3c"></rect><text x="87.5" y="30.285714285714285" font-family="Arial, Helvetica, sans-serif" font-size="11" text-anchor="middle" fill="#404040">+24</text><rect data-i="1" x="207.625" y="52.576441102756895" width="69.75" height="13.784461152882209" fill="#469b3c"></rect><text x="242.5" y="46.576441102756895" font-family="Arial, Helvetica, sans-serif" font-size="11" text-anchor="middle" fill="#404040">+11</text><rect data-i="2" x="362.625" y="66.3609022556391" width="69.75" height="41.35338345864663" fill="#c0392b"></rect><text x="397.5" y="119.71428571428574" font-family="Arial, Helvetica, sans-serif" font-size="11" text-anchor="middle" fill="#404040">-33</text><rect data-i="3" x="517.625" y="43.80451127819549" width="69.75" height="22.556390977443613" fill="#469b3c"></rect><text x="552.5" y="37.80451127819549" font-family="Arial, Helvetica, sans-serif" font-size="11" text-anchor="middle" fill="#404040">+18</text><line x1="10" y1="64.76090225563911" x2="630" y2="64.76090225563911" stroke="#404040" stroke-width="1"></line><line x1="10" y1="67.9609022556391" x2="630" y2="67.9609022556391" stroke="#404040" stroke-width="1"></line></g><g transform="translate(0,276)"><text x="12" y="10" font-family="Arial, Helvetica, sans-serif" font-size="10.5" fill="#8a8a8a">AC und PL</text><rect x="37.125" y="63.128644939965696" width="65.1" height="124.8713550600343" fill="#ffffff" stroke="#404040" stroke-width="1.3"></rect><rect data-i="0" x="72.775" y="51.60205831903946" width="65.1" height="136.39794168096054" fill="#404040"></rect><rect x="192.125" y="48.720411663807894" width="65.1" height="139.2795883361921" fill="#ffffff" stroke="#404040" stroke-width="1.3"></rect><rect data-i="1" x="227.77499999999998" y="43.43739279588337" width="65.1" height="144.56260720411663" fill="#404040"></rect><rect x="347.125" y="46.31903945111493" width="65.1" height="141.68096054888508" fill="#ffffff" stroke="#404040" stroke-width="1.3"></rect><rect data-i="2" x="382.775" y="62.168096054888515" width="65.1" height="125.83190394511149" fill="#404040"></rect><rect x="502.12499999999994" y="43.917667238421956" width="65.1" height="144.08233276157804" fill="#ffffff" stroke="#404040" stroke-width="1.3"></rect><rect data-i="3" x="537.7750000000001" y="35.27272727272728" width="65.1" height="152.72727272727272" fill="#404040"></rect><line x1="10" y1="188" x2="630" y2="188" stroke="#404040" stroke-width="1.5"></line><text x="105.325" y="45.60205831903946" font-family="Arial, Helvetica, sans-serif" font-size="11" text-anchor="middle" fill="#404040">284</text><text x="87.5" y="203" font-family="Arial, Helvetica, sans-serif" font-size="11" text-anchor="middle" fill="#555555">Q1</text><text x="260.325" y="37.43739279588337" font-family="Arial, Helvetica, sans-serif" font-size="11" text-anchor="middle" fill="#404040">301</text><text x="242.5" y="203" font-family="Arial, Helvetica, sans-serif" font-size="11" text-anchor="middle" fill="#555555">Q2</text><text x="415.325" y="56.168096054888515" font-family="Arial, Helvetica, sans-serif" font-size="11" text-anchor="middle" paint-order="stroke" stroke="#ffffff" stroke-width="3" stroke-linejoin="round" fill="#404040">262</text><text x="397.5" y="203" font-family="Arial, Helvetica, sans-serif" font-size="11" text-anchor="middle" fill="#555555">Q3</text><text x="570.325" y="29.27272727272728" font-family="Arial, Helvetica, sans-serif" font-size="11" text-anchor="middle" fill="#555555">Q4</text></g></svg>