<svg xmlns="http://www.w3.org/2000/svg" viewBox="0 0 640 340" width="640" height="340" role="img"><defs><pattern id="h-dark" width="5" height="5" patternUnits="userSpaceOnUse" patternTransform="rotate(45)"><rect width="5" height="5" fill="#ffffff"></rect><line x1="0" y1="0" x2="0" y2="5" stroke="#404040" stroke-width="2.4"></line></pattern><pattern id="h-pos" width="5" height="5" patternUnits="userSpaceOnUse" patternTransform="rotate(45)"><rect width="5" height="5" fill="#ffffff"></rect><line x1="0" y1="0" x2="0" y2="5" stroke="#469b3c" stroke-width="2.4"></line></pattern><pattern id="h-neg" width="5" height="5" patternUnits="userSpaceOnUse" patternTransform="rotate(45)"><rect width="5" height="5" fill="#ffffff"></rect><line x1="0" y1="0" x2="0" y2="5" stroke="#c0392b" stroke-width="2.4"></line></pattern></defs><text x="130" y="16" font-family="Arial, Helvetica, sans-serif" font-size="11" text-anchor="middle" font-weight="bold" fill="#555555">PY</text><text x="500" y="16" font-family="Arial, Helvetica, sans-serif" font-size="11" text-anchor="middle" font-weight="bold" fill="#555555">AC</text><line x1="130" y1="26" x2="130" y2="326" stroke="#e2e1de" stroke-width="1"></line><line x1="500" y1="26" x2="500" y2="326" stroke="#e2e1de" stroke-width="1"></line><line x1="130" y1="72.11708482676224" x2="500" y2="48.222222222222214" stroke="#469b3c" stroke-width="1.8"></line><circle cx="130" cy="72.11708482676224" r="3.1" fill="#469b3c"></circle><circle cx="500" cy="48.222222222222214" r="3.1" fill="#469b3c"></circle><text x="121" y="75.61708482676224" font-family="Arial, Helvetica, sans-serif" font-size="10.5" text-anchor="end" fill="#404040">DACH  170</text><text x="509" y="51.722222222222214" font-family="Arial, Helvetica, sans-serif" font-size="10.5" text-anchor="start" fill="#469b3c">186  +16 (+9,4%)</text><line x1="130" y1="143.80167264038232" x2="500" y2="101.98566308243727" stroke="#469b3c" stroke-width="1.8"></line><circle cx="130" cy="143.80167264038232" r="3.1" fill="#469b3c"></circle><circle cx="500" cy="101.98566308243727" r="3.1" fill="#469b3c"></circle><text x="121" y="147.30167264038232" font-family="Arial, Helvetica, sans-serif" font-size="10.5" text-anchor="end" fill="#404040">North America  122</text><text x="509" y="105.48566308243727" font-family="Arial, Helvetica, sans-serif" font-size="10.5" text-anchor="start" fill="#469b3c">150  +28 (+23%)</text><line x1="130" y1="164.70967741935482" x2="500" y2="182.63082437275983" stroke="#c0392b" stroke-width="1.8"></line><circle cx="130" cy="164.70967741935482" r="3.1" fill="#c0392b"></circle><circle cx="500" cy="182.63082437275983" r="3.1" fill="#c0392b"></circle><text x="121" y="168.20967741935482" font-family="Arial, Helvetica, sans-serif" font-size="10.5" text-anchor="end" fill="#404040">EMEA  108</text><text x="509" y="186.13082437275983" font-family="Arial, Helvetica, sans-serif" font-size="10.5" text-anchor="start" fill="#c0392b">96  -12 (-11,1%)</text><line x1="130" y1="248.34169653524492" x2="500" y2="230.42054958183988" stroke="#469b3c" stroke-width="1.8"></line><circle cx="130" cy="248.34169653524492" r="3.1" fill="#469b3c"></circle><circle cx="500" cy="230.42054958183988" r="3.1" fill="#469b3c"></circle><text x="121" y="251.84169653524492" font-family="Arial, Helvetica, sans-serif" font-size="10.5" text-anchor="end" fill="#404040">APAC  52</text><text x="509" y="233.92054958183988" font-family="Arial, Helvetica, sans-serif" font-size="10.5" text-anchor="start" fill="#469b3c">64  +12 (+23,1%)</text><line x1="130" y1="255.80884109916366" x2="500" y2="269.2497013142174" stroke="#c0392b" stroke-width="1.8"></line><circle cx="130" cy="255.80884109916366" r="3.1" fill="#c0392b"></circle><circle cx="500" cy="269.2497013142174" r="3.1" fill="#c0392b"></circle><text x="121" y="259.30884109916366" font-family="Arial, Helvetica, sans-serif" font-size="10.5" text-anchor="end" fill="#404040">LATAM  47</text><text x="509" y="272.7497013142174" font-family="Arial, Helvetica, sans-serif" font-size="10.5" text-anchor="start" fill="#c0392b">38  -9 (-19,1%)</text></svg>