<svg xmlns="http://www.w3.org/2000/svg" viewBox="0 0 640 190" width="640" height="190" role="img"><defs><pattern id="h-dark" width="5" height="5" patternUnits="userSpaceOnUse" patternTransform="rotate(45)"><rect width="5" height="5" fill="#ffffff"></rect><line x1="0" y1="0" x2="0" y2="5" stroke="#404040" stroke-width="2.4"></line></pattern><pattern id="h-pos" width="5" height="5" patternUnits="userSpaceOnUse" patternTransform="rotate(45)"><rect width="5" height="5" fill="#ffffff"></rect><line x1="0" y1="0" x2="0" y2="5" stroke="#469b3c" stroke-width="2.4"></line></pattern><pattern id="h-neg" width="5" height="5" patternUnits="userSpaceOnUse" patternTransform="rotate(45)"><rect width="5" height="5" fill="#ffffff"></rect><line x1="0" y1="0" x2="0" y2="5" stroke="#c0392b" stroke-width="2.4"></line></pattern></defs><text x="161.5" y="17" font-family="Arial, Helvetica, sans-serif" font-size="9.5" text-anchor="middle" font-weight="bold" fill="#555555">DACH</text><text x="296.5" y="17" font-family="Arial, Helvetica, sans-serif" font-size="9.5" text-anchor="middle" font-weight="bold" fill="#555555">North America</text><text x="431.5" y="17" font-family="Arial, Helvetica, sans-serif" font-size="9.5" text-anchor="middle" font-weight="bold" fill="#555555">EMEA</text><text x="566.5" y="17" font-family="Arial, Helvetica, sans-serif" font-size="9.5" text-anchor="middle" font-weight="bold" fill="#555555">APAC</text><text x="86" y="42.5" font-family="Arial, Helvetica, sans-serif" font-size="10.5" text-anchor="end" fill="#555555">Jan</text><rect x="95" y="27" width="133" height="24" fill="#469b3c" fill-opacity="0.56"></rect><text x="161.5" y="42.5" font-family="Arial, Helvetica, sans-serif" font-size="10" text-anchor="middle" fill="#ffffff">5</text><rect x="230" y="27" width="133" height="24" fill="#c0392b" fill-opacity="0.37"></rect><text x="296.5" y="42.5" font-family="Arial, Helvetica, sans-serif" font-size="10" text-anchor="middle" fill="#404040">-3</text><rect x="365" y="27" width="133" height="24" fill="#469b3c" fill-opacity="0.28"></rect><text x="431.5" y="42.5" font-family="Arial, Helvetica, sans-serif" font-size="10" text-anchor="middle" fill="#404040">2</text><rect x="500" y="27" width="133" height="24" fill="#c0392b" fill-opacity="0.19"></rect><text x="566.5" y="42.5" font-family="Arial, Helvetica, sans-serif" font-size="10" text-anchor="middle" fill="#404040">-1</text><text x="86" y="68.5" font-family="Arial, Helvetica, sans-serif" font-size="10.5" text-anchor="end" fill="#555555">Feb</text><rect x="95" y="53" width="133" height="24" fill="#469b3c" fill-opacity="0.83"></rect><text x="161.5" y="68.5" font-family="Arial, Helvetica, sans-serif" font-size="10" text-anchor="middle" fill="#ffffff">8</text><rect x="230" y="53" width="133" height="24" fill="#c0392b" fill-opacity="0.19"></rect><text x="296.5" y="68.5" font-family="Arial, Helvetica, sans-serif" font-size="10" text-anchor="middle" fill="#404040">-1</text><rect x="365" y="53" width="133" height="24" fill="#c0392b" fill-opacity="0.46"></rect><text x="431.5" y="68.5" font-family="Arial, Helvetica, sans-serif" font-size="10" text-anchor="middle" fill="#404040">-4</text><rect x="500" y="53" width="133" height="24" fill="#469b3c" fill-opacity="0.37"></rect><text x="566.5" y="68.5" font-family="Arial, Helvetica, sans-serif" font-size="10" text-anchor="middle" fill="#404040">3</text><text x="86" y="94.5" font-family="Arial, Helvetica, sans-serif" font-size="10.5" text-anchor="end" fill="#555555">Mär</text><rect x="95" y="79" width="133" height="24" fill="#c0392b" fill-opacity="0.28"></rect><text x="161.5" y="94.5" font-family="Arial, Helvetica, sans-serif" font-size="10" text-anchor="middle" fill="#404040">-2</text><rect x="230" y="79" width="133" height="24" fill="#469b3c" fill-opacity="0.46"></rect><text x="296.5" y="94.5" font-family="Arial, Helvetica, sans-serif" font-size="10" text-anchor="middle" fill="#404040">4</text><rect x="365" y="79" width="133" height="24" fill="#469b3c" fill-opacity="0.19"></rect><text x="431.5" y="94.5" font-family="Arial, Helvetica, sans-serif" font-size="10" text-anchor="middle" fill="#404040">1</text><rect x="500" y="79" width="133" height="24" fill="#c0392b" fill-opacity="0.56"></rect><text x="566.5" y="94.5" font-family="Arial, Helvetica, sans-serif" font-size="10" text-anchor="middle" fill="#ffffff">-5</text><text x="86" y="120.5" font-family="Arial, Helvetica, sans-serif" font-size="10.5" text-anchor="end" fill="#555555">Apr</text><rect x="95" y="105" width="133" height="24" fill="#469b3c" fill-opacity="0.65"></rect><text x="161.5" y="120.5" font-family="Arial, Helvetica, sans-serif" font-size="10" text-anchor="middle" fill="#ffffff">6</text><rect x="230" y="105" width="133" height="24" fill="#469b3c" fill-opacity="0.28"></rect><text x="296.5" y="120.5" font-family="Arial, Helvetica, sans-serif" font-size="10" text-anchor="middle" fill="#404040">2</text><rect x="365" y="105" width="133" height="24" fill="#c0392b" fill-opacity="0.37"></rect><text x="431.5" y="120.5" font-family="Arial, Helvetica, sans-serif" font-size="10" text-anchor="middle" fill="#404040">-3</text><rect x="500" y="105" width="133" height="24" fill="#469b3c" fill-opacity="0.46"></rect><text x="566.5" y="120.5" font-family="Arial, Helvetica, sans-serif" font-size="10" text-anchor="middle" fill="#404040">4</text><text x="86" y="146.5" font-family="Arial, Helvetica, sans-serif" font-size="10.5" text-anchor="end" fill="#555555">Mai</text><rect x="95" y="131" width="133" height="24" fill="#c0392b" fill-opacity="0.46"></rect><text x="161.5" y="146.5" font-family="Arial, Helvetica, sans-serif" font-size="10" text-anchor="middle" fill="#404040">-4</text><rect x="230" y="131" width="133" height="24" fill="#c0392b" fill-opacity="0.28"></rect><text x="296.5" y="146.5" font-family="Arial, Helvetica, sans-serif" font-size="10" text-anchor="middle" fill="#404040">-2</text><rect x="365" y="131" width="133" height="24" fill="#469b3c" fill-opacity="0.56"></rect><text x="431.5" y="146.5" font-family="Arial, Helvetica, sans-serif" font-size="10" text-anchor="middle" fill="#ffffff">5</text><rect x="500" y="131" width="133" height="24" fill="#469b3c" fill-opacity="0.19"></rect><text x="566.5" y="146.5" font-family="Arial, Helvetica, sans-serif" font-size="10" text-anchor="middle" fill="#404040">1</text><text x="86" y="172.5" font-family="Arial, Helvetica, sans-serif" font-size="10.5" text-anchor="end" fill="#555555">Jun</text><rect x="95" y="157" width="133" height="24" fill="#469b3c" fill-opacity="0.92"></rect><text x="161.5" y="172.5" font-family="Arial, Helvetica, sans-serif" font-size="10" text-anchor="middle" fill="#ffffff">9</text><rect x="230" y="157" width="133" height="24" fill="#469b3c" fill-opacity="0.37"></rect><text x="296.5" y="172.5" font-family="Arial, Helvetica, sans-serif" font-size="10" text-anchor="middle" fill="#404040">3</text><rect x="365" y="157" width="133" height="24" fill="#c0392b" fill-opacity="0.19"></rect><text x="431.5" y="172.5" font-family="Arial, Helvetica, sans-serif" font-size="10" text-anchor="middle" fill="#404040">-1</text><rect x="500" y="157" width="133" height="24" fill="#c0392b" fill-opacity="0.28"></rect><text x="566.5" y="172.5" font-family="Arial, Helvetica, sans-serif" font-size="10" text-anchor="middle" fill="#404040">-2</text></svg>