<svg xmlns="http://www.w3.org/2000/svg" width="1080" height="1350" viewBox="0 0 1080 1350"><rect width="1080" height="1350" fill="#0b0c0e"/><text x="60.0" y="92.0" font-family="JetBrains Mono, Consolas, monospace" font-size="20" fill="#f0b54a" font-weight="600" text-anchor="start" letter-spacing="3">KÖLNER RASER-ATLAS 2025 · FESTE ANLAGEN</text><text x="60.0" y="160.0" font-family="Segoe UI, Helvetica, Arial, sans-serif" font-size="50" fill="#ffffff" font-weight="750" text-anchor="start" >Nachts wird aus „etwas zu schnell“</text><text x="60.0" y="222.0" font-family="Segoe UI, Helvetica, Arial, sans-serif" font-size="50" fill="#e66767" font-weight="750" text-anchor="start" >„deutlich zu schnell“.</text><text x="60.0" y="280.0" font-family="Segoe UI, Helvetica, Arial, sans-serif" font-size="23" fill="#c3c2b7" font-weight="400" text-anchor="start" >Anteil der Geblitzten mit 21 km/h und mehr zu viel, je Uhrzeit (Punkte in Flensburg)</text><line x1="110" x2="1020" y1="900.0" y2="900.0" stroke="#2c2c2a"/><text x="96.0" y="907.0" font-family="Segoe UI, Helvetica, Arial, sans-serif" font-size="20" fill="#898781" font-weight="400" text-anchor="end" >0 %</text><line x1="110" x2="1020" y1="630.0" y2="630.0" stroke="#2c2c2a"/><text x="96.0" y="637.0" font-family="Segoe UI, Helvetica, Arial, sans-serif" font-size="20" fill="#898781" font-weight="400" text-anchor="end" >5 %</text><line x1="110" x2="1020" y1="360.0" y2="360.0" stroke="#2c2c2a"/><text x="96.0" y="367.0" font-family="Segoe UI, Helvetica, Arial, sans-serif" font-size="20" fill="#898781" font-weight="400" text-anchor="end" >10 %</text><rect x="114.0" y="579.2" width="29.9" height="320.8" fill="#e66767"/><rect x="151.9" y="525.9" width="29.9" height="374.1" fill="#e66767"/><rect x="189.8" y="489.3" width="29.9" height="410.7" fill="#e66767"/><rect x="227.8" y="465.4" width="29.9" height="434.6" fill="#e66767"/><rect x="265.7" y="541.8" width="29.9" height="358.2" fill="#e66767"/><rect x="303.6" y="551.5" width="29.9" height="348.5" fill="#e66767"/><rect x="341.5" y="621.7" width="29.9" height="278.3" fill="#a65454"/><rect x="379.4" y="708.6" width="29.9" height="191.4" fill="#a65454"/><rect x="417.3" y="730.1" width="29.9" height="169.9" fill="#a65454"/><rect x="455.2" y="740.2" width="29.9" height="159.8" fill="#a65454"/><rect x="493.2" y="758.9" width="29.9" height="141.1" fill="#a65454"/><rect x="531.1" y="767.3" width="29.9" height="132.7" fill="#a65454"/><rect x="569.0" y="796.3" width="29.9" height="103.7" fill="#a65454"/><rect x="606.9" y="789.9" width="29.9" height="110.1" fill="#a65454"/><rect x="644.8" y="806.8" width="29.9" height="93.2" fill="#a65454"/><rect x="682.8" y="804.4" width="29.9" height="95.6" fill="#a65454"/><rect x="720.7" y="796.7" width="29.9" height="103.3" fill="#a65454"/><rect x="758.6" y="803.8" width="29.9" height="96.2" fill="#a65454"/><rect x="796.5" y="777.3" width="29.9" height="122.7" fill="#a65454"/><rect x="834.4" y="746.3" width="29.9" height="153.7" fill="#a65454"/><rect x="872.3" y="713.0" width="29.9" height="187.0" fill="#a65454"/><rect x="910.2" y="660.6" width="29.9" height="239.4" fill="#a65454"/><rect x="948.2" y="672.0" width="29.9" height="228.0" fill="#e66767"/><rect x="986.1" y="613.0" width="29.9" height="287.0" fill="#e66767"/><text x="129.0" y="932.0" font-family="Segoe UI, Helvetica, Arial, sans-serif" font-size="20" fill="#898781" font-weight="400" text-anchor="middle" >00</text><text x="242.7" y="932.0" font-family="Segoe UI, Helvetica, Arial, sans-serif" font-size="20" fill="#898781" font-weight="400" text-anchor="middle" >03</text><text x="356.5" y="932.0" font-family="Segoe UI, Helvetica, Arial, sans-serif" font-size="20" fill="#898781" font-weight="400" text-anchor="middle" >06</text><text x="470.2" y="932.0" font-family="Segoe UI, Helvetica, Arial, sans-serif" font-size="20" fill="#898781" font-weight="400" text-anchor="middle" >09</text><text x="584.0" y="932.0" font-family="Segoe UI, Helvetica, Arial, sans-serif" font-size="20" fill="#898781" font-weight="400" text-anchor="middle" >12</text><text x="697.7" y="932.0" font-family="Segoe UI, Helvetica, Arial, sans-serif" font-size="20" fill="#898781" font-weight="400" text-anchor="middle" >15</text><text x="811.5" y="932.0" font-family="Segoe UI, Helvetica, Arial, sans-serif" font-size="20" fill="#898781" font-weight="400" text-anchor="middle" >18</text><text x="925.2" y="932.0" font-family="Segoe UI, Helvetica, Arial, sans-serif" font-size="20" fill="#898781" font-weight="400" text-anchor="middle" >21</text><text x="242.7" y="451.4" font-family="Segoe UI, Helvetica, Arial, sans-serif" font-size="26" fill="#ffffff" font-weight="700" text-anchor="middle" >8,0 %</text><text x="659.8" y="792.8" font-family="Segoe UI, Helvetica, Arial, sans-serif" font-size="26" fill="#ffffff" font-weight="700" text-anchor="middle" >1,7 %</text><text x="60.0" y="1010.0" font-family="Segoe UI, Helvetica, Arial, sans-serif" font-size="22" fill="#c3c2b7" font-weight="400" text-anchor="start" >Über die ganze Nacht (22–6 Uhr) gegen den Tag (10–18 Uhr), je Anlage bereinigt:</text><text x="60.0" y="1046.0" font-family="Segoe UI, Helvetica, Arial, sans-serif" font-size="22" fill="#ffffff" font-weight="700" text-anchor="start" >Anteil ab 21 km/h 2,3-mal, ab 31 km/h 4,1-mal so hoch.</text><text x="60.0" y="1096.0" font-family="Segoe UI, Helvetica, Arial, sans-serif" font-size="20" fill="#898781" font-weight="400" text-anchor="start" >Grundlage: 231.143 Fälle der 43 festen Anlagen, die rund um die Uhr gleich messen.</text><text x="60.0" y="1126.0" font-family="Segoe UI, Helvetica, Arial, sans-serif" font-size="20" fill="#898781" font-weight="400" text-anchor="start" >Ein Anteil unter den Geblitzten, keine Zahl der Raser: Verkehrsmengen fehlen.</text><text x="60.0" y="1310.0" font-family="JetBrains Mono, Consolas, monospace" font-size="15" fill="#898781" font-weight="400" text-anchor="start" >Daten: Stadt Köln, Offene Daten (dl-de/zero-2-0) · Auswertung: Daten-WG · datenwgknowledgekitchen.com</text></svg>